# xmcd
#
# Track frame offsets: 
#        150
#        14396
#        27609
#        38477
#        51967
#        63452
#        76860
#        88056
#        99290
#        112739
#        134894
#        145396
#        156096
#        169658
#        181793
#        195565
#
# Disc length: 2844 seconds
#
# Revision: 0
# Processed by: cddbd v1.5.2PL0 Copyright (c) Steve Scherf et al.
# Submitted via: ExactAudioCopy v1.1
#
DISCID=cf0b1a10
DTITLE=Diana Ross and The Supremes - Diana Ross Y The Supremes Sus 50 Me
DTITLE=jores Canciones Disk3
DYEAR=2016
DGENRE=R&B
TTITLE0=Aquarius Let The Sunshine In (The Flesh Failures)
TTITLE1=Love Child (Album Version (Stereo))
TTITLE2=Some Things You Never Get Used To (Single Version (Stereo))
TTITLE3=Beach Ball (2011 Version)
TTITLE4=The Only Time I'm Happy
TTITLE5=Oowee Baby (2011 Version)
TTITLE6=Standing At The Crossroads Of Love (Single Version)
TTITLE7=Time Changes Things
TTITLE8=Any Girl In Love (Knows What I'm Going Through)
TTITLE9=Ode To Billie Joe
TTITLE10=I'm In Love Again (Album Version (Stereo))
TTITLE11=Baby Doll
TTITLE12=The Composer
TTITLE13=Whisper You Love Me Boy (Album Version (Stereo))
TTITLE14=Queen Of The House (Live At The Copa1965)
TTITLE15=Somewhere (Live At The Copa 1965)
EXTD=
EXTT0=
EXTT1=
EXTT2=
EXTT3=
EXTT4=
EXTT5=
EXTT6=
EXTT7=
EXTT8=
EXTT9=
EXTT10=
EXTT11=
EXTT12=
EXTT13=
EXTT14=
EXTT15=
PLAYORDER=
